<?xml version="1.0" standalone="no"?>
<!DOCTYPE svg PUBLIC "-//W3C//DTD SVG 20010904//EN"
 "http://www.w3.org/TR/2001/REC-SVG-20010904/DTD/svg10.dtd">
<svg version="1.0" xmlns="http://www.w3.org/2000/svg"
 width="1000.000000pt" height="1000.000000pt" viewBox="0 0 1000.000000 1000.000000"
 preserveAspectRatio="xMidYMid meet">

<g transform="translate(0.000000,1000.000000) scale(0.100000,-0.100000)"
fill="#000000" stroke="none">
<path d="M2187 9317 c-17 -14 -67 -143 -67 -174 0 -12 -5 -34 -11 -50 -21 -56
-57 -354 -69 -563 -31 -578 -32 -636 -23 -1305 8 -693 8 -1006 -2 -1060 -4
-21 -20 -41 -53 -65 -177 -130 -495 -514 -772 -930 -87 -131 -260 -407 -260
-415 0 -3 -18 -33 -39 -68 -21 -35 -52 -91 -68 -123 -16 -32 -35 -68 -41 -79
-24 -41 -90 -193 -117 -270 -31 -89 -36 -157 -16 -245 26 -115 44 -187 58
-235 8 -27 19 -68 25 -90 27 -103 127 -375 158 -434 5 -9 35 -70 66 -136 48
-99 110 -210 164 -295 6 -8 13 -22 17 -30 4 -8 9 -17 12 -20 4 -3 19 -25 35
-50 103 -158 275 -367 437 -529 221 -222 441 -393 754 -589 131 -82 555 -292
589 -292 7 0 15 -3 19 -6 10 -11 171 -74 187 -74 9 0 20 -4 25 -9 6 -5 37 -16
70 -26 33 -9 76 -23 95 -30 31 -12 72 -24 185 -55 48 -14 146 -37 200 -49 28
-5 79 -17 115 -24 534 -117 1255 -136 1860 -49 184 27 526 104 705 159 103 32
201 65 217 74 10 5 24 9 33 9 8 0 29 6 47 14 29 13 63 27 133 56 147 60 202
85 330 150 182 93 217 113 366 206 261 163 493 347 709 564 350 350 597 716
823 1220 65 146 167 460 167 517 0 94 -88 320 -240 618 -82 161 -147 278 -190
345 -6 8 -13 22 -17 30 -16 35 -173 286 -262 418 -53 79 -103 154 -111 167 -8
12 -24 34 -35 49 -11 14 -51 68 -90 119 -122 162 -257 309 -337 366 -35 25
-49 43 -54 66 -3 17 2 180 11 361 9 181 20 415 25 519 5 105 14 276 19 380 17
301 14 1179 -4 1365 -28 289 -75 494 -118 522 -11 7 -72 -13 -120 -39 -62 -33
-74 -40 -132 -78 -54 -35 -163 -112 -175 -125 -3 -3 -45 -39 -95 -80 -184
-153 -261 -225 -550 -515 -137 -138 -279 -282 -315 -321 -35 -38 -100 -107
-144 -154 -115 -123 -184 -197 -245 -265 -30 -33 -101 -108 -158 -167 l-104
-108 -212 0 c-559 2 -1466 19 -1484 28 -34 18 -135 129 -343 377 -112 132
-217 256 -234 276 -17 19 -53 61 -81 94 -27 32 -55 63 -60 69 -6 6 -39 45 -75
86 -36 41 -90 102 -120 135 -30 32 -84 91 -120 130 -124 135 -426 431 -525
514 -170 142 -338 242 -368 218z m461 -3779 c5 -7 22 -44 37 -83 16 -38 40
-97 55 -130 137 -302 284 -701 309 -839 55 -303 -134 -546 -426 -546 -159 0
-285 67 -377 199 -78 115 -93 262 -41 421 36 114 125 330 211 518 19 41 34 76
34 78 0 3 13 33 29 67 25 55 78 177 124 290 17 39 28 45 45 25z m-830 -1569
c282 -273 510 -446 757 -574 61 -31 116 -62 124 -68 8 -7 46 -77 84 -157 201
-419 396 -821 427 -881 56 -107 35 -115 -89 -32 -449 298 -845 680 -1115 1077
-153 226 -275 465 -356 697 -20 59 -22 99 -5 99 3 0 81 -72 173 -161z m6387
48 c7 -18 -74 -216 -148 -359 -221 -430 -557 -828 -982 -1164 -164 -130 -487
-344 -519 -344 -19 0 -21 28 -3 55 14 21 90 163 219 415 70 135 123 236 277
530 33 63 66 118 73 122 7 4 69 34 138 68 219 105 459 273 710 498 80 71 158
144 174 161 31 33 53 39 61 18z m-5253 -776 c272 -110 763 -235 1108 -281 47
-6 89 -15 93 -20 21 -20 34 -7 -408 -426 -283 -268 -307 -289 -327 -289 -15 0
-44 47 -132 220 -61 121 -176 344 -254 497 -78 152 -142 283 -142 292 0 18 27
21 62 7z m3961 -71 c-1 -14 -23 -63 -50 -110 -27 -47 -68 -119 -90 -160 -52
-97 -252 -463 -332 -607 -41 -75 -68 -113 -79 -113 -27 0 -734 713 -727 732 5
11 27 17 88 22 45 4 107 11 137 16 30 5 102 17 160 26 239 37 781 174 850 215
25 15 45 5 43 -21z m-2367 -266 c182 -17 635 -20 784 -5 138 15 138 13 57
-140 -60 -116 -178 -344 -388 -754 -102 -199 -114 -208 -153 -123 -13 29 -70
148 -126 263 -56 116 -119 246 -140 290 -64 135 -155 326 -189 397 -30 61 -33
88 -12 88 4 0 79 -7 167 -16z m-279 -106 c6 -7 77 -159 158 -338 81 -179 160
-352 175 -385 15 -33 38 -82 50 -110 13 -27 36 -79 52 -114 33 -72 31 -91 -10
-91 -53 0 -269 33 -457 70 -229 45 -539 156 -687 247 -39 24 -50 55 -24 70 8
4 72 62 142 129 71 66 192 178 269 249 77 71 176 164 220 207 82 80 95 87 112
66z m1577 -287 c155 -154 314 -310 354 -347 97 -91 96 -100 -15 -152 -150 -69
-226 -97 -398 -145 -87 -25 -118 -31 -290 -63 -146 -26 -418 -56 -440 -48 -22
9 -20 19 34 129 224 453 424 864 432 883 5 12 16 22 25 22 10 0 144 -126 298
-279z"/>
</g>
</svg>
